<svg width="72" height="50" viewBox="0 0 72 50" fill="none" xmlns="http://www.w3.org/2000/svg">
<path fill-rule="evenodd" clip-rule="evenodd" d="M22.0417 34.6744C22.5718 35.4976 23.3669 36.189 24.427 36.7817C25.454 37.3744 26.6466 37.6707 27.9718 37.6707C29.6613 37.6707 31.1853 37.2427 32.5436 36.3866C33.9018 35.5305 34.9951 34.3451 35.7902 32.8634C36.5853 31.3817 36.9828 29.6695 36.9828 27.7927C36.9828 25.9159 36.5853 24.2037 35.7902 22.722C34.9951 21.2073 33.9018 20.0549 32.5436 19.1988C31.1853 18.3427 29.6613 17.9146 27.9718 17.9146C26.6798 17.9146 25.4871 18.211 24.427 18.8037C23.3669 19.3634 22.5718 20.0878 22.0417 20.9439H21.8429L22.0417 18.3098V11H18V37.078H21.8429V34.6744H22.0417ZM32.1791 31.0524C31.6491 31.9744 30.9865 32.7317 30.1252 33.2256C29.2638 33.7195 28.3693 33.9829 27.3755 33.9829C26.4147 33.9829 25.4871 33.7195 24.6589 33.2256C23.8307 32.7317 23.135 32.0073 22.638 31.0524C22.1411 30.1305 21.8761 29.0439 21.8761 27.8256C21.8761 26.6073 22.1411 25.5207 22.638 24.5988C23.135 23.6439 23.8307 22.9195 24.6589 22.4256C25.4871 21.9317 26.3816 21.6683 27.3755 21.6683C28.3693 21.6683 29.2638 21.9317 30.1252 22.4256C30.9865 22.9524 31.6822 23.6768 32.1791 24.5988C32.6761 25.5207 32.9411 26.6073 32.9411 27.8256C32.9411 29.011 32.6761 30.0976 32.1791 31.0524Z" fill="white"/>
<path fill-rule="evenodd" clip-rule="evenodd" d="M40.8586 32.8635C41.6868 34.3781 42.8132 35.5305 44.2708 36.3866C45.7285 37.2427 47.3518 37.6708 49.207 37.7037C51.1948 37.7037 52.8843 37.2756 54.3089 36.3866C55.7334 35.4976 56.8598 34.2793 57.7543 32.7647L54.342 31.1513C53.8451 32.0732 53.1494 32.7647 52.3212 33.2915C51.4929 33.8183 50.4991 34.0817 49.3396 34.0817C47.8819 34.0817 46.623 33.5878 45.5297 32.6659C44.4365 31.7439 43.807 30.3939 43.6745 28.6817H58.0193C58.0856 28.1549 58.1187 27.7269 58.1187 27.3976C58.1187 25.6196 57.7543 24.0061 57.0254 22.5574C56.2966 21.1086 55.2696 19.9891 53.8782 19.1659C52.4868 18.3427 50.8635 17.9147 48.9751 17.9147C47.1531 17.9147 45.5629 18.3756 44.1383 19.2647C42.7138 20.1537 41.6205 21.372 40.8255 22.8866C40.0304 24.4013 39.6328 26.0476 39.6328 27.8256C39.6328 29.7025 40.0304 31.3817 40.8586 32.8635ZM53.3813 23.6769C53.7457 24.3025 53.9776 24.961 54.0107 25.6196V25.6525H43.8733C44.2046 24.3354 44.834 23.3147 45.7285 22.5574C46.623 21.8 47.7162 21.4049 49.0083 21.4049C50.0684 21.4049 50.9629 21.6354 51.7248 22.0635C52.4537 22.4915 53.0169 23.0183 53.3813 23.6769Z" fill="white"/>
<path d="M66.534 36.9793C65.8051 36.7159 65.2088 36.3537 64.745 35.9256C63.6849 34.872 63.1548 33.4561 63.1548 31.6781V22.0305H59.9082V18.5073H63.1548V13.272H67.1965V18.5073H71.7352V22.0305H67.1965V30.789C67.1965 31.7768 67.3953 32.5012 67.7929 32.8964C68.1573 33.3903 68.7867 33.6208 69.7143 33.6208C70.145 33.6208 70.5094 33.5549 70.8076 33.4561C71.1389 33.3573 71.4702 33.1598 71.8346 32.9293V36.8147C71.0395 37.1769 70.0456 37.3744 68.8861 37.3744C68.0579 37.3744 67.2628 37.2427 66.534 36.9793Z" fill="white"/>
<path d="M37.5672 40.3333C34.128 43.2333 29.6966 45 24.8354 45C13.8893 45 4.99353 36.0667 4.96046 25.0333V25C4.96046 13.9667 13.8231 5 24.7692 5C31.6147 5 37.6664 8.5 41.238 13.8333C42.693 13 44.2804 12.4 46 12.0333C41.6679 4.8 33.7642 0 24.7692 0C11.0784 0 0 11.2 0 25V25.0333C0 38.8333 11.1445 50 24.8354 50C31.317 50 37.2035 47.4667 41.6348 43.3667C40.1136 42.5667 38.7577 41.5333 37.5672 40.3333Z" fill="#1FE6B5"/>
</svg>
